<?xml version="1.0" standalone="no"?><svg xmlns="http://www.w3.org/2000/svg" viewBox="0 0 1440 320"><path fill="#ceb7f4" fill-opacity="1" d="M0,0L30,48C60,96,120,192,180,213.3C240,235,300,181,360,170.7C420,160,480,192,540,218.7C600,245,660,267,720,277.3C780,288,840,288,900,261.3C960,235,1020,181,1080,154.7C1140,128,1200,128,1260,138.7C1320,149,1380,171,1410,181.3L1440,192L1440,320L1410,320C1380,320,1320,320,1260,320C1200,320,1140,320,1080,320C1020,320,960,320,900,320C840,320,780,320,720,320C660,320,600,320,540,320C480,320,420,320,360,320C300,320,240,320,180,320C120,320,60,320,30,320L0,320Z" style="--darkreader-inline-fill: var(--darkreader-background-facde9, #4c0832);" data-darkreader-inline-fill=""></path></svg>